<svg xmlns="http://www.w3.org/2000/svg" viewBox="0 0 260 520" fill="none" stroke="#B9CBCE" stroke-width="1.4" stroke-linecap="round" stroke-linejoin="round" role="presentation" aria-hidden="true">
  <path d="M 210 30 C 150 90, 130 160, 120 240 C 108 330, 90 400, 40 480" />
  <g transform="translate(190.1 52.0) rotate(-15.0)"><path d="M 0 0 C 25.724999999999998 -17.325000000000003 55.125 -17.325000000000003 73.5 0 C 55.125 17.325000000000003 25.724999999999998 17.325000000000003 0 0 Z" /><path d="M 4 0 L 67.5 0" /><path d="M 25.724999999999998 0 L 16.17 -7.938000000000001" /><path d="M 25.724999999999998 0 L 16.17 7.938000000000001" /><path d="M 44.1 0 L 33.81 -6.237" /><path d="M 44.1 0 L 33.81 6.237" /></g><g transform="translate(163.7 90.7) rotate(155.0)"><path d="M 0 0 C 23.275 -15.675 49.875 -15.675 66.5 0 C 49.875 15.675 23.275 15.675 0 0 Z" /><path d="M 4 0 L 60.5 0" /><path d="M 23.275 0 L 14.63 -7.182" /><path d="M 23.275 0 L 14.63 7.182" /><path d="M 39.9 0 L 30.59 -5.643000000000001" /><path d="M 39.9 0 L 30.59 5.643000000000001" /></g><g transform="translate(143.1 135.9) rotate(-18.0)"><path d="M 0 0 C 28.174999999999997 -18.975 60.375 -18.975 80.5 0 C 60.375 18.975 28.174999999999997 18.975 0 0 Z" /><path d="M 4 0 L 74.5 0" /><path d="M 28.174999999999997 0 L 17.71 -8.694" /><path d="M 28.174999999999997 0 L 17.71 8.694" /><path d="M 48.3 0 L 37.03 -6.831" /><path d="M 48.3 0 L 37.03 6.831" /></g><g transform="translate(127.4 193.2) rotate(158.0)"><path d="M 0 0 C 24.5 -16.5 52.5 -16.5 70.0 0 C 52.5 16.5 24.5 16.5 0 0 Z" /><path d="M 4 0 L 64.0 0" /><path d="M 24.5 0 L 15.4 -7.5600000000000005" /><path d="M 24.5 0 L 15.4 7.5600000000000005" /><path d="M 42.0 0 L 32.2 -5.9399999999999995" /><path d="M 42.0 0 L 32.2 5.9399999999999995" /></g><g transform="translate(118.5 250.7) rotate(-20.0)"><path d="M 0 0 C 29.4 -19.8 63.0 -19.8 84.0 0 C 63.0 19.8 29.4 19.8 0 0 Z" /><path d="M 4 0 L 78.0 0" /><path d="M 29.4 0 L 18.48 -9.072000000000003" /><path d="M 29.4 0 L 18.48 9.072000000000003" /><path d="M 50.4 0 L 38.64 -7.128" /><path d="M 50.4 0 L 38.64 7.128" /></g><g transform="translate(107.9 311.6) rotate(156.0)"><path d="M 0 0 C 25.724999999999998 -17.325000000000003 55.125 -17.325000000000003 73.5 0 C 55.125 17.325000000000003 25.724999999999998 17.325000000000003 0 0 Z" /><path d="M 4 0 L 67.5 0" /><path d="M 25.724999999999998 0 L 16.17 -7.938000000000001" /><path d="M 25.724999999999998 0 L 16.17 7.938000000000001" /><path d="M 44.1 0 L 33.81 -6.237" /><path d="M 44.1 0 L 33.81 6.237" /></g><g transform="translate(92.8 368.4) rotate(-16.0)"><path d="M 0 0 C 26.95 -18.150000000000002 57.75 -18.150000000000002 77.0 0 C 57.75 18.150000000000002 26.95 18.150000000000002 0 0 Z" /><path d="M 4 0 L 71.0 0" /><path d="M 26.95 0 L 16.94 -8.316" /><path d="M 26.95 0 L 16.94 8.316" /><path d="M 46.199999999999996 0 L 35.42 -6.534" /><path d="M 46.199999999999996 0 L 35.42 6.534" /></g><g transform="translate(70.8 423.7) rotate(160.0)"><path d="M 0 0 C 22.049999999999997 -14.850000000000001 47.25 -14.850000000000001 63.0 0 C 47.25 14.850000000000001 22.049999999999997 14.850000000000001 0 0 Z" /><path d="M 4 0 L 57.0 0" /><path d="M 22.049999999999997 0 L 13.86 -6.804" /><path d="M 22.049999999999997 0 L 13.86 6.804" /><path d="M 37.8 0 L 28.98 -5.346" /><path d="M 37.8 0 L 28.98 5.346" /></g>
</svg>