<svg xmlns="http://www.w3.org/2000/svg" viewBox="0 0 64 64" fill="none" stroke="currentColor" stroke-width="1.3" stroke-linecap="round" stroke-linejoin="round" aria-hidden="true">
  <circle cx="32" cy="32" r="6" />
  <ellipse cx="45.0" cy="32.0" rx="8" ry="4.2" transform="rotate(0.0 45.0 32.0)" /><ellipse cx="41.2" cy="41.2" rx="8" ry="4.2" transform="rotate(45.0 41.2 41.2)" /><ellipse cx="32.0" cy="45.0" rx="8" ry="4.2" transform="rotate(90.0 32.0 45.0)" /><ellipse cx="22.8" cy="41.2" rx="8" ry="4.2" transform="rotate(135.0 22.8 41.2)" /><ellipse cx="19.0" cy="32.0" rx="8" ry="4.2" transform="rotate(180.0 19.0 32.0)" /><ellipse cx="22.8" cy="22.8" rx="8" ry="4.2" transform="rotate(225.0 22.8 22.8)" /><ellipse cx="32.0" cy="19.0" rx="8" ry="4.2" transform="rotate(270.0 32.0 19.0)" /><ellipse cx="41.2" cy="22.8" rx="8" ry="4.2" transform="rotate(315.0 41.2 22.8)" />
  <circle cx="32" cy="32" r="22" stroke-dasharray="2 4" opacity="0.5"/>
</svg>