<svg xmlns="http://www.w3.org/2000/svg" viewBox="0 0 64 64" fill="none" stroke="currentColor" stroke-width="1.3" stroke-linecap="round" stroke-linejoin="round" aria-hidden="true">
  <circle cx="32" cy="32" r="6" />
  <line x1="41.0" y1="32.0" x2="58.0" y2="32.0" /><line x1="40.3" y1="35.4" x2="48.6" y2="38.9" /><line x1="38.4" y1="38.4" x2="50.4" y2="50.4" /><line x1="35.4" y1="40.3" x2="38.9" y2="48.6" /><line x1="32.0" y1="41.0" x2="32.0" y2="58.0" /><line x1="28.6" y1="40.3" x2="25.1" y2="48.6" /><line x1="25.6" y1="38.4" x2="13.6" y2="50.4" /><line x1="23.7" y1="35.4" x2="15.4" y2="38.9" /><line x1="23.0" y1="32.0" x2="6.0" y2="32.0" /><line x1="23.7" y1="28.6" x2="15.4" y2="25.1" /><line x1="25.6" y1="25.6" x2="13.6" y2="13.6" /><line x1="28.6" y1="23.7" x2="25.1" y2="15.4" /><line x1="32.0" y1="23.0" x2="32.0" y2="6.0" /><line x1="35.4" y1="23.7" x2="38.9" y2="15.4" /><line x1="38.4" y1="25.6" x2="50.4" y2="13.6" /><line x1="40.3" y1="28.6" x2="48.6" y2="25.1" />
</svg>