<svg xmlns="http://www.w3.org/2000/svg" viewBox="0 0 60 60" fill="none" role="img" aria-label="Símbolo em espiral da marca Espiral de Sabedoria">
  <path d="M 30.00 30.00 L 30.01 29.89 L 30.03 29.78 L 30.07 29.68 L 30.13 29.58 L 30.20 29.49 L 30.28 29.41 L 30.38 29.34 L 30.49 29.28 L 30.61 29.23 L 30.74 29.20 L 30.87 29.18 L 31.02 29.18 L 31.17 29.19 L 31.32 29.23 L 31.47 29.28 L 31.62 29.35 L 31.77 29.44 L 31.91 29.54 L 32.05 29.67 L 32.17 29.81 L 32.29 29.97 L 32.40 30.15 L 32.49 30.34 L 32.56 30.55 L 32.62 30.77 L 32.65 31.00 L 32.67 31.24 L 32.67 31.49 L 32.64 31.74 L 32.59 32.00 L 32.52 32.26 L 32.42 32.52 L 32.29 32.77 L 32.15 33.03 L 31.97 33.27 L 31.77 33.50 L 31.55 33.73 L 31.30 33.94 L 31.03 34.13 L 30.74 34.30 L 30.43 34.45 L 30.10 34.58 L 29.76 34.68 L 29.40 34.76 L 29.03 34.81 L 28.64 34.83 L 28.25 34.82 L 27.85 34.78 L 27.45 34.70 L 27.05 34.59 L 26.65 34.44 L 26.26 34.27 L 25.88 34.05 L 25.50 33.81 L 25.15 33.53 L 24.80 33.21 L 24.48 32.87 L 24.19 32.50 L 23.91 32.09 L 23.67 31.66 L 23.46 31.21 L 23.28 30.73 L 23.13 30.24 L 23.02 29.72 L 22.96 29.19 L 22.93 28.65 L 22.94 28.10 L 23.00 27.55 L 23.10 26.99 L 23.25 26.44 L 23.44 25.89 L 23.67 25.35 L 23.95 24.82 L 24.28 24.31 L 24.64 23.82 L 25.05 23.35 L 25.50 22.91 L 25.99 22.50 L 26.51 22.12 L 27.07 21.78 L 27.66 21.48 L 28.27 21.22 L 28.92 21.01 L 29.58 20.85 L 30.26 20.73 L 30.96 20.67 L 31.67 20.66 L 32.39 20.70 L 33.11 20.80 L 33.82 20.96 L 34.53 21.17 L 35.23 21.44 L 35.92 21.76 L 36.58 22.14 L 37.22 22.57 L 37.84 23.05 L 38.42 23.59 L 38.96 24.17 L 39.46 24.80 L 39.92 25.47 L 40.33 26.18 L 40.69 26.93 L 41.00 27.71 L 41.25 28.51 L 41.44 29.35 L 41.56 30.20 L 41.62 31.07 L 41.62 31.94 L 41.55 32.83 L 41.41 33.71 L 41.21 34.59 L 40.93 35.45 L 40.59 36.31 L 40.19 37.14 L 39.71 37.94 L 39.18 38.72 L 38.58 39.45 L 37.92 40.15 L 37.20 40.80 L 36.44 41.40 L 35.62 41.94 L 34.76 42.43 L 33.85 42.85 L 32.91 43.21 L 31.94 43.50 L 30.94 43.71 L 29.92 43.85 L 28.88 43.92 L 27.84 43.91 L 26.79 43.81 L 25.74 43.64 L 24.70 43.39 L 23.67 43.06 L 22.67 42.65 L 21.69 42.16 L 20.74 41.59 L 19.83 40.95 L 18.97 40.24 L 18.15 39.46 L 17.39 38.62 L 16.69 37.72 L 16.06 36.76 L 15.50 35.74 L 15.01 34.68 L 14.59 33.58 L 14.26 32.45 L 14.01 31.28 L 13.85 30.09 L 13.78 28.89 L 13.80 27.67 L 13.91 26.45 L 14.12 25.24 L 14.41 24.03 L 14.80 22.85 L 15.28 21.69 L 15.84 20.56 L 16.50 19.46 L 17.23 18.42 L 18.05 17.42 L 18.95 16.49 L 19.92 15.62 L 20.96 14.81 L 22.06 14.09 L 23.22 13.44 L 24.44 12.88 L 25.70 12.41 L 27.00 12.03 L 28.33 11.75 L 29.68 11.57 L 31.06 11.48 L 32.44 11.51 L 33.83 11.63 L 35.21 11.86 L 36.58 12.20 L 37.93 12.63 L 39.25 13.17 L 40.53 13.82 L 41.77 14.56 L 42.96 15.39 L 44.08 16.31 L 45.14 17.33 L 46.13 18.42 L 47.04 19.59 L 47.86 20.84 L 48.59 22.14 L 49.22 23.51 L 49.76 24.93 L 50.19 26.39 L 50.51 27.88 L 50.72 29.41 L 50.81 30.95 L 50.79 32.51 L 50.66 34.06 L 50.41 35.61 L 50.04 37.15 L 49.55 38.66 L 48.95 40.14 L 48.24 41.57 L 47.42 42.96 L 46.49 44.29 L 45.46 45.55 L 44.34 46.74 L 43.12 47.84 L 41.82 48.86 L 40.44 49.78 L 38.98 50.60 L 37.47 51.31 L 35.89 51.91 L 34.27 52.40 L 32.61 52.76 L 30.92 53.00 L 29.21 53.11 L 27.48 53.10 L 25.76 52.96 L 24.04 52.68 L 22.34 52.28 L 20.66 51.75 L 19.02 51.10 L 17.43 50.32 L 15.89 49.42" stroke="#D6B68A" stroke-width="2.4" stroke-linecap="round" stroke-linejoin="round"/>
</svg>